<svg xmlns="http://www.w3.org/2000/svg" width="2000" height="1500">
    <path fill="#0080ff" d="M0 0h2000v1500H0z"/>
    <g transform="matrix(.75 0 0 .75 250.86 432.3)">
        <svg xmlns="http://www.w3.org/2000/svg" xmlns:xlink="http://www.w3.org/1999/xlink" width="2000" height="843" data-background-color="#0080ff" viewBox="0 0 223 96">
            <g transform="translate(-.13 .24)">
                <svg width="223.26" height="95.85" viewBox="0 0 223.26 95.85">
                    <g>
                        <svg width="223.26" height="95.85" viewBox="0 0 223.26 95.85">
                            <g>
                                <svg width="223.26" height="95.85" viewBox="0 0 223.26 95.85">
                                    <g>
                                        <svg width="223.26" height="95.85" viewBox="0 0 223.26 95.85">
                                            <g>
                                                <svg width="223.26" height="59.14" viewBox="0 0 223.26 59.14">
                                                    <g>
                                                        <svg/>
                                                    </g>
                                                    <g>
                                                        <svg>
                                                            <g>
                                                                <svg/>
                                                            </g>
                                                        </svg>
                                                    </g>
                                                    <g>
                                                        <svg width="223.26" height="59.14" viewBox="0 0 223.26 59.14">
                                                            <g>
                                                                <svg width="149.91" height="59.14" data-palette-color="#ffffff" viewBox="2.7 -35.65 92.64 36.55">
                                                                    <path fill="#fff" d="M30.15-34.75V0H18.5L9.7-26.15l.15 1.05q.5 3.45.78 6.47.27 3.03.27 6.88V0H2.7v-34.75h11.4L23.2-8.5q-.6-3.75-.92-6.75-.33-3-.33-6.9v-12.6h8.2Zm19.95-.9q7.55 0 11.75 4.8t4.2 13.45q0 5.65-1.88 9.77Q62.3-3.5 58.7-1.3 55.1.9 50.1.9q-7.55 0-11.73-4.8-4.17-4.8-4.17-13.5 0-5.65 1.87-9.75 1.88-4.1 5.45-6.3 3.58-2.2 8.58-2.2Zm0 6.65q-3.25 0-4.78 2.7-1.52 2.7-1.52 8.9t1.55 8.93q1.55 2.72 4.75 2.72 3.3 0 4.8-2.7t1.5-8.95q0-6.2-1.5-8.9T50.1-29Zm31.95-6.65q3.95 0 6.97 1.15 3.03 1.15 5.42 3.45l-4.14 4.9Q86.69-29 82.75-29q-2.06 0-3.13.77-1.07.78-1.07 2.18 0 1 .54 1.65.55.65 1.85 1.25 1.31.6 4.11 1.5 5.34 1.7 7.82 4.27 2.47 2.58 2.47 7.13 0 3.3-1.7 5.83-1.7 2.52-4.92 3.92Q85.5.9 81.14.9q-8.3 0-13.55-5.05l4.55-5.05q4.16 3.4 8.66 3.4 2.34 0 3.64-1.03 1.31-1.02 1.31-2.72 0-1.2-.5-1.98-.5-.77-1.78-1.4-1.28-.62-3.72-1.37-5.91-1.85-8.31-4.45-2.39-2.6-2.39-6.55 0-3.1 1.67-5.45t4.65-3.63q2.97-1.27 6.68-1.27Z" class="wordmark-text-0" data-fill-palette-color="primary"/>
                                                                </svg>
                                                            </g>
                                                            <g>
                                                                <svg xmlns="http://www.w3.org/2000/svg" xmlns:xlink="http://www.w3.org/1999/xlink" xml:space="preserve" width="59.39" height="59.14" x="163.87" class="icon-s-0" data-fill-palette-color="accent" style="enable-background:new 0 0 50 50" viewBox="1 1.1 48 47.8">
                                  <path fill="#fff" d="M1 1.1v47.8h48V1.1H1zM8.6 41l7.3-7.3-7.3-7.3L10 25l8.6 8.6-8.6 8.7L8.6 41zM29 42.6H17.3v-1.9H29v1.9z" data-fill-palette-color="accent"/>
                                </svg>
                                                            </g>
                                                        </svg>
                                                    </g>
                                                </svg>
                                            </g>
                                            <g transform="translate(0 73.1)">
                                                <svg width="131.07" height="22.76" viewBox="0 0 131.07 22.76">
                                                    <g>
                                                        <svg width="131.07" height="22.76" data-palette-color="#ffffff" viewBox="2.05 -36.2 266.42 45.85">
                                                            <path fill="#fff" d="M6.95-14.5H19.2v-.9q-.1-2.85-1.55-4.53-1.45-1.67-4.15-1.67-2.5 0-4.3 1.82-1.8 1.83-2.25 5.28Zm15.4 8.75v4.4q-2.8 1.6-7.4 1.6-5.9 0-9.4-3.55t-3.5-9.3q0-6.1 3.2-9.58 3.2-3.47 8.15-3.47 4.85 0 7.7 3.02 2.85 3.03 2.85 8.73 0 1.55-.3 3.25H7q.5 3.3 2.8 5.05t5.8 1.75q4.05 0 6.75-1.9Zm21.8-18.75v4.45q-2.45-1.45-6.3-1.45-1.75 0-2.78.8-1.02.8-1.02 2.1 0 .35.07.67.08.33.28.65.2.33.37.55.18.23.58.48.4.25.62.42.23.18.75.43l.78.37q.25.13.87.4l.88.38q2.95 1.3 4.62 2.92Q45.55-9.7 45.55-7q0 3.4-2.4 5.32-2.4 1.93-6.5 1.93-4.5 0-7.5-1.5V-5.9q3.5 2.15 7.25 2.15 1.95 0 3.02-.8 1.08-.8 1.08-2.1 0-1.1-.85-1.98-.85-.87-1.73-1.3-.87-.42-2.97-1.32Q29-13.7 29-18.45q0-3.35 2.5-5.25t6.25-1.9q4.1 0 6.4 1.1ZM55.8 0h-4.95v-35.35h4.95V0Zm12.24 0h-4.95v-25.35h4.95V0Zm-4.67-30.93q-.88-.87-.88-2.17 0-1.3.88-2.2.87-.9 2.17-.9 1.3 0 2.2.9.9.9.9 2.2 0 1.25-.9 2.15-.9.9-2.2.9-1.3 0-2.17-.88Zm11.77 5.58h4.9V-21q2.25-4.7 7.9-4.7 3.75 0 5.95 2.3t2.2 6.25V0h-4.9v-16q0-2.65-1.32-4.05-1.33-1.4-3.53-1.4-2.6 0-4.45 2.02-1.85 2.03-1.85 5.68V0h-4.9v-25.35Zm40.55 3.8h-6.65V-7.6q0 3.65 3.5 3.65 2.05 0 3.45-1.1v4.4q-1.65.9-4.05.9-7.85 0-7.85-7.95v-13.85h-3.95v-3.8h3.95v-6.2h4.95v6.2h6.65v3.8Zm17.1 10.3h-12.2v-4.2h12.2v4.2Zm9.74-1.3q.1 3.85 2.35 6.32 2.25 2.48 6.3 2.48 3 0 5.6-1.65V-1Q154.33.5 150.53.5q-5.95 0-9.5-3.75t-3.55-9.35q0-5.45 3.58-9.33 3.57-3.87 9.67-3.87 3.3 0 6.05 1.4v4.5q-2.45-1.55-5.55-1.55-3.95 0-6.32 2.5-2.38 2.5-2.38 6.4Zm30.5 13q-5.6 0-8.8-3.65-3.2-3.65-3.2-9.25 0-5.7 3.3-9.48 3.3-3.77 8.7-3.77 5.8 0 8.95 3.67 3.15 3.68 3.15 9.38 0 5.7-3.22 9.4-3.23 3.7-8.88 3.7Zm-.05-22q-3.25 0-5.05 2.57-1.8 2.58-1.8 6.38 0 3.75 1.85 6.32 1.85 2.58 5.05 2.58 3.4 0 5.18-2.5 1.77-2.5 1.77-6.35 0-3.95-1.7-6.48-1.7-2.52-5.3-2.52Zm17.65-3.8h4.9V-21q2.25-4.7 7.9-4.7 3.75 0 5.95 2.3t2.2 6.25V0h-4.9v-16q0-2.65-1.33-4.05-1.32-1.4-3.52-1.4-2.6 0-4.45 2.02-1.85 2.03-1.85 5.68V0h-4.9v-25.35Zm40.6-10.05v4.3q-1.15-.5-2.4-.5-3.65 0-3.65 4.35v1.9h5.35v3.8h-5.35V0h-4.9v-21.55h-4.05v-3.8h4.05v-1.95q0-3.95 2.12-6.22 2.13-2.28 5.98-2.28 1.4 0 2.85.4ZM240.02 0h-4.95v-25.35h4.95V0Zm-4.67-30.93q-.88-.87-.88-2.17 0-1.3.88-2.2.87-.9 2.17-.9 1.3 0 2.2.9.9.9.9 2.2 0 1.25-.9 2.15-.9.9-2.2.9-1.3 0-2.17-.88ZM257.12-4.9q2.6 0 4.53-2.03 1.92-2.02 1.92-5.67 0-4.5-1.82-6.65-1.83-2.15-4.43-2.15-2.95 0-4.65 2.33-1.7 2.32-1.7 6.12 0 3.95 1.83 6 1.82 2.05 4.32 2.05Zm6.45-16.5v-3.95h4.9v23.2q0 5.85-3.32 8.83-3.33 2.97-8.53 2.97-4.9 0-8.25-1.65V3.05q3.2 2.1 7.75 2.1 7.45 0 7.45-7.35v-2.6q-2.45 4.1-7.35 4.1-4.3 0-7.35-3.18-3.05-3.17-3.05-8.97 0-5.6 2.85-9.23 2.85-3.62 7.55-3.62 5.05 0 7.35 4.3Z" class="slogan-text-1" data-fill-palette-color="secondary"/>
                                                        </svg>
                                                    </g>
                                                </svg>
                                            </g>
                                        </svg>
                                    </g>
                                </svg>
                            </g>
                        </svg>
                    </g>
                </svg>
            </g>
        </svg>
    </g>
</svg>
